<svg xmlns="http://www.w3.org/2000/svg" viewBox="0 0 48 48" fill="none" stroke="currentColor" stroke-width="0.8" stroke-linecap="round">
  <line x1="24" y1="37.2" x2="11.4" y2="11.4"/>
  <line x1="24" y1="37.2" x2="13.2" y2="12"/>
  <line x1="24" y1="37.2" x2="15" y2="11.8"/>
  <line x1="24" y1="37.2" x2="16.8" y2="11.2"/>
  <line x1="24" y1="37.2" x2="18.6" y2="10.8"/>
  <line x1="24" y1="37.2" x2="20.4" y2="10.6"/>
  <line x1="24" y1="37.2" x2="22.2" y2="10.4"/>
  <line x1="24" y1="37.2" x2="24" y2="10.3" stroke-width="1.2"/>
  <line x1="24" y1="37.2" x2="25.8" y2="10.4"/>
  <line x1="24" y1="37.2" x2="27.6" y2="10.6"/>
  <line x1="24" y1="37.2" x2="29.4" y2="10.8"/>
  <line x1="24" y1="37.2" x2="31.2" y2="11.2"/>
  <line x1="24" y1="37.2" x2="33" y2="11.8"/>
  <line x1="24" y1="37.2" x2="34.8" y2="12"/>
  <line x1="24" y1="37.2" x2="36.6" y2="11.4"/>
  <path d="M11.4 11.4 Q24 8.4 36.6 11.4" stroke-width="1"/>
  <circle cx="24" cy="37.2" r="0.7" fill="currentColor"/>
</svg>
