<svg xmlns="http://www.w3.org/2000/svg" viewBox="0 0 48 48" fill="none" stroke="currentColor" stroke-width="0.8">
  <rect x="22.3" y="10.6" width="3.4" height="3.4" rx="0.36" fill="currentColor"/>
  <rect x="18.5" y="14.4" width="3.4" height="3.4" rx="0.36" fill="currentColor"/>
  <rect x="22.3" y="14.4" width="3.4" height="3.4" rx="0.36" fill="currentColor"/>
  <rect x="26.2" y="14.4" width="3.4" height="3.4" rx="0.36" fill="currentColor"/>
  <rect x="14.6" y="18.2" width="3.4" height="3.4" rx="0.36" fill="currentColor"/>
  <rect x="18.5" y="18.2" width="3.4" height="3.4" rx="0.36" fill="currentColor"/>
  <rect x="22.3" y="18.2" width="3.4" height="3.4" rx="0.36" fill="currentColor"/>
  <rect x="26.2" y="18.2" width="3.4" height="3.4" rx="0.36" fill="currentColor"/>
  <rect x="30" y="18.2" width="3.4" height="3.4" rx="0.36" fill="currentColor"/>
  <rect x="10.8" y="22" width="3.4" height="3.4" rx="0.36" fill="currentColor"/>
  <rect x="14.6" y="22" width="3.4" height="3.4" rx="0.36" fill="currentColor"/>
  <rect x="18.5" y="22" width="3.4" height="3.4" rx="0.36" fill="currentColor"/>
  <rect x="22.3" y="22" width="3.4" height="3.4" rx="0.36" fill="currentColor"/>
  <rect x="26.2" y="22" width="3.4" height="3.4" rx="0.36" fill="currentColor"/>
  <rect x="30" y="22" width="3.4" height="3.4" rx="0.36" fill="currentColor"/>
  <rect x="33.8" y="22" width="3.4" height="3.4" rx="0.36" fill="currentColor"/>
  <rect x="7" y="25.9" width="3.4" height="3.4" rx="0.36" fill="currentColor"/>
  <rect x="10.8" y="25.9" width="3.4" height="3.4" rx="0.36" fill="currentColor"/>
  <rect x="14.6" y="25.9" width="3.4" height="3.4" rx="0.36" fill="currentColor"/>
  <rect x="18.5" y="25.9" width="3.4" height="3.4" rx="0.36" fill="currentColor"/>
  <rect x="22.3" y="25.9" width="3.4" height="3.4" rx="0.36" fill="currentColor"/>
  <rect x="26.2" y="25.9" width="3.4" height="3.4" rx="0.36" fill="currentColor"/>
  <rect x="30" y="25.9" width="3.4" height="3.4" rx="0.36" fill="currentColor"/>
  <rect x="33.8" y="25.9" width="3.4" height="3.4" rx="0.36" fill="currentColor"/>
  <rect x="37.7" y="25.9" width="3.4" height="3.4" rx="0.36" fill="currentColor"/>
  <line x1="3.1" y1="34.1" x2="44.9" y2="34.1"/>
</svg>
