<svg xmlns="http://www.w3.org/2000/svg" viewBox="0 0 48 48" fill="none" stroke="currentColor" stroke-width="1.2">
  <circle cx="24" cy="24" r="14.4" fill="none"/>
  <circle cx="24" cy="24" r="1.2" fill="currentColor"/>
  <line x1="24" y1="24" x2="24" y2="9.6"/>
  <line x1="24" y1="24" x2="34.2" y2="13.8"/>
  <line x1="24" y1="24" x2="38.4" y2="24"/>
  <line x1="24" y1="24" x2="34.2" y2="34.2"/>
  <line x1="24" y1="24" x2="24" y2="38.4"/>
  <line x1="24" y1="24" x2="13.8" y2="34.2"/>
  <line x1="24" y1="24" x2="9.6" y2="24"/>
  <line x1="24" y1="24" x2="13.8" y2="13.8"/>
  <circle cx="24" cy="9.6" r="0.7" fill="currentColor"/>
  <circle cx="34.2" cy="13.8" r="0.55" fill="currentColor"/>
  <circle cx="38.4" cy="24" r="0.7" fill="currentColor"/>
  <circle cx="34.2" cy="34.2" r="0.55" fill="currentColor"/>
  <circle cx="24" cy="38.4" r="0.7" fill="currentColor"/>
  <circle cx="13.8" cy="34.2" r="0.55" fill="currentColor"/>
  <circle cx="9.6" cy="24" r="0.7" fill="currentColor"/>
  <circle cx="13.8" cy="13.8" r="0.55" fill="currentColor"/>
</svg>
